<svg width="105" height="105" viewBox="0 0 105 105" fill="none" xmlns="http://www.w3.org/2000/svg">
<rect x="1.04998" y="0.270137" width="103.74" height="103.74" rx="25.87" fill="white" stroke="black" stroke-width="0.26"/>
<path d="M52.9204 24.0952C68.4091 24.0953 80.9653 36.6514 80.9653 52.1401V75.7075C80.9651 78.1802 78.9605 80.1849 76.4878 80.1851H52.9204C37.4317 80.1851 24.8756 67.6288 24.8755 52.1401C24.8755 36.6514 37.4317 24.0952 52.9204 24.0952Z" stroke="white" stroke-width="9.8982"/>
<path d="M52.9204 24.0952C68.4091 24.0953 80.9653 36.6514 80.9653 52.1401V75.7075C80.9651 78.1802 78.9605 80.1849 76.4878 80.1851H52.9204C37.4317 80.1851 24.8756 67.6288 24.8755 52.1401C24.8755 36.6514 37.4317 24.0952 52.9204 24.0952Z" stroke="url(#paint0_linear_31_8)" stroke-width="9.8982"/>
<defs>
<linearGradient id="paint0_linear_31_8" x1="20.0128" y1="19.146" x2="97.0794" y2="37.2578" gradientUnits="userSpaceOnUse">
<stop stop-color="#DD0058"/>
<stop stop-color="#C50068"/>
<stop offset="0.41" stop-color="#8F008C"/>
<stop offset="1" stop-color="#4000BF"/>
</linearGradient>
</defs>
</svg>
