<svg width="253" height="52" viewBox="0 0 253 52" fill="none" xmlns="http://www.w3.org/2000/svg">
<path d="M26 3.90039C38.2055 3.90039 48.0996 13.7945 48.0996 26V44.5713C48.0996 46.5201 46.5201 48.0996 44.5713 48.0996H26C13.7945 48.0996 3.90039 38.2055 3.90039 26C3.90039 13.7945 13.7945 3.90039 26 3.90039Z" stroke="white" stroke-width="7.8"/>
<path d="M26 3.90039C38.2055 3.90039 48.0996 13.7945 48.0996 26V44.5713C48.0996 46.5201 46.5201 48.0996 44.5713 48.0996H26C13.7945 48.0996 3.90039 38.2055 3.90039 26C3.90039 13.7945 13.7945 3.90039 26 3.90039Z" stroke="url(#paint0_linear_31_17)" stroke-width="7.8"/>
<path d="M73.2341 32.1305L66.0723 6.33354C65.8775 5.65147 65.78 4.84759 65.78 4.38476C65.78 2.75265 66.9493 1.58338 68.6301 1.58338C70.1404 1.58338 71.1148 2.65521 71.602 4.79887L76.7419 27.2342H77.0342L82.5152 4.79887C83.0511 2.6065 84.0255 1.58338 85.755 1.58338C87.4846 1.58338 88.459 2.63086 88.9949 4.79887L94.4758 27.2342H94.7682L99.8593 4.79887C100.322 2.67957 101.321 1.58338 102.831 1.58338C104.488 1.58338 105.681 2.75265 105.681 4.3604C105.681 4.82323 105.584 5.62711 105.438 6.13866L98.276 32.1305C97.6182 34.4691 96.7413 35.2973 95.0117 35.2973C93.2091 35.2973 92.1617 34.3716 91.5527 32.0575L85.8768 10.4991H85.6332L79.9331 32.1305C79.3484 34.3229 78.3009 35.2973 76.5714 35.2973C74.8419 35.2973 73.9162 34.5665 73.2341 32.1305Z" fill="#8F008C"/>
<path d="M132.16 32.4228C132.16 34.3229 131.162 35.4191 129.456 35.4191C127.727 35.4191 126.753 34.3229 126.753 32.4228V19.3417C126.753 15.7121 124.852 13.6658 121.54 13.6658C117.861 13.6658 115.474 16.4185 115.474 20.8276V32.4228C115.474 34.3229 114.475 35.4191 112.77 35.4191C111.04 35.4191 110.066 34.3229 110.066 32.4228V2.99625C110.066 1.09619 111.065 0 112.77 0C114.475 0 115.474 1.09619 115.474 2.99625V14.0556H115.742C116.619 11.0837 119.834 9.03747 123.561 9.03747C128.945 9.03747 132.16 12.326 132.16 17.807V32.4228Z" fill="#8F008C"/>
<path d="M152.891 31.8382C151.478 34.2255 148.896 35.5409 145.704 35.5409C140.686 35.5409 137.3 32.3741 137.3 27.6971C137.3 22.9469 140.759 20.0481 146.508 20.0237H152.939V17.7339C152.939 14.8351 151.161 13.3248 147.872 13.3248C145.826 13.3248 144.413 14.0556 142.927 15.5659C142.27 16.1992 141.636 16.4428 140.711 16.4428C139.517 16.4428 138.738 15.639 138.738 14.4697C138.738 12.9838 139.761 11.5222 141.929 10.3529C143.488 9.50031 145.534 9.03747 148.213 9.03747C154.718 9.03747 158.347 12.1555 158.347 17.7583V32.4959C158.347 34.3473 157.397 35.4191 155.716 35.4191C154.23 35.4191 153.28 34.5178 153.159 32.9831V31.8382H152.891ZM142.733 27.4291C142.733 29.8164 144.608 31.4241 147.385 31.4241C150.528 31.4241 152.939 29.2804 152.939 26.5034V23.7264H147.263C144.389 23.7264 142.733 25.0662 142.733 27.4291Z" fill="#8F008C"/>
<path d="M166.556 28.3304V13.9094H164.997C163.511 13.9094 162.61 13.0812 162.61 11.7414C162.61 10.3773 163.487 9.57339 164.997 9.57339H166.654V5.79762C166.654 3.94628 167.604 2.87445 169.285 2.87445C170.965 2.87445 171.94 3.94628 171.94 5.79762V9.57339H174.912C176.422 9.57339 177.275 10.3773 177.275 11.7414C177.275 13.0812 176.398 13.9094 174.912 13.9094H171.989V27.9407C171.989 30.4741 172.622 31.2536 174.766 31.2536C175.448 31.2536 175.911 31.1805 176.446 31.1805C177.47 31.1805 178.2 31.8626 178.2 32.9344C178.2 33.7626 177.811 34.4691 177.007 34.9319C176.203 35.3947 175.034 35.6383 173.45 35.6383C168.578 35.6383 166.556 33.6165 166.556 28.3304Z" fill="#8F008C"/>
<path d="M181.197 29.9869C181.197 28.6714 182.049 27.8189 183.365 27.8189C184.12 27.8189 184.704 28.1599 185.703 29.1099C187.433 30.742 189.26 31.5215 191.598 31.5215C194.546 31.5215 196.373 30.2548 196.373 28.1842C196.373 26.5521 195.155 25.3342 192.841 24.8226L188.407 23.7995C183.754 22.752 181.562 20.4622 181.562 16.7595C181.562 12.0337 185.46 8.94003 191.525 8.94003C194.034 8.94003 196.373 9.52467 198.2 10.6209C199.929 11.6196 200.952 13.0325 200.952 14.421C200.952 15.6633 200.1 16.4428 198.809 16.4428C198.054 16.4428 197.518 16.1992 196.397 15.2492C194.619 13.6415 193.206 13.0568 191.257 13.0568C188.48 13.0568 186.799 14.3479 186.799 16.3941C186.799 18.0506 187.896 19.0493 190.283 19.6096L194.96 20.6814C199.515 21.7289 201.634 23.97 201.634 27.7214C201.634 32.6177 197.713 35.6627 191.306 35.6627C188.602 35.6627 186.069 35.0781 184.168 34.0306C182.268 32.9831 181.197 31.5459 181.197 29.9869Z" fill="#8F008C"/>
<path d="M217.468 35.4678C215.934 35.4678 214.886 34.5665 214.886 33.1536C214.886 32.569 215.032 31.9357 215.349 31.01L224.484 5.16427C225.337 2.72829 226.53 1.65646 228.747 1.65646C230.964 1.65646 232.157 2.70393 232.985 5.16427L242.12 31.01C242.388 31.8139 242.535 32.4716 242.535 33.0806C242.535 34.5421 241.487 35.4678 239.904 35.4678C238.418 35.4678 237.541 34.7127 236.98 32.837L234.691 25.9675H222.657L220.367 32.837C219.782 34.737 218.954 35.4678 217.468 35.4678ZM223.972 21.7289H233.375L228.82 7.67333H228.552L223.972 21.7289Z" fill="#8F008C"/>
<path d="M250.257 35.4191C248.527 35.4191 247.48 34.2985 247.48 32.3985V4.70144C247.48 2.80137 248.503 1.68082 250.257 1.68082C251.986 1.68082 253.009 2.80137 253.009 4.70144V32.3985C253.009 34.2985 251.986 35.4191 250.257 35.4191Z" fill="#8F008C"/>
<path d="M65.7714 49.6001L68.4913 43.5941H69.3407L72.0692 49.6001H71.1683L68.7401 44.0746H69.0833L66.6552 49.6001H65.7714ZM66.9297 48.0986L67.1614 47.4122H70.5419L70.7907 48.0986H66.9297ZM74.6745 49.6516C74.2856 49.6516 73.9424 49.5801 73.6449 49.4371C73.3532 49.2941 73.1244 49.0767 72.9585 48.785C72.7984 48.4876 72.7183 48.1158 72.7183 47.6696V45.0527H73.542V47.5752C73.542 48.0214 73.6478 48.356 73.8594 48.5791C74.0768 48.8022 74.38 48.9137 74.7689 48.9137C75.0549 48.9137 75.3037 48.8565 75.5154 48.7421C75.727 48.622 75.89 48.4504 76.0044 48.2273C76.1188 47.9985 76.176 47.7239 76.176 47.4036V45.0527H76.9997V49.6001H76.2189V48.3732L76.3476 48.6992C76.1989 49.0024 75.9758 49.2369 75.6784 49.4028C75.381 49.5686 75.0463 49.6516 74.6745 49.6516ZM80.1293 49.6516C79.6717 49.6516 79.3171 49.5286 79.0654 49.2826C78.8137 49.0367 78.6879 48.6849 78.6879 48.2273V44.0574H79.5116V48.193C79.5116 48.4389 79.5716 48.6277 79.6918 48.7593C79.8176 48.8908 79.9949 48.9566 80.2237 48.9566C80.4811 48.9566 80.6956 48.8851 80.8672 48.7421L81.1246 49.3341C80.9988 49.4428 80.8472 49.5229 80.6699 49.5744C80.4983 49.6258 80.3181 49.6516 80.1293 49.6516ZM77.9157 45.7305V45.0527H80.8157V45.7305H77.9157ZM83.9173 49.6516C83.4597 49.6516 83.0536 49.5515 82.6989 49.3513C82.3443 49.1511 82.064 48.8765 81.8581 48.5276C81.6522 48.173 81.5492 47.7726 81.5492 47.3264C81.5492 46.8745 81.6522 46.4741 81.8581 46.1252C82.064 45.7763 82.3443 45.5046 82.6989 45.3101C83.0536 45.1099 83.4597 45.0098 83.9173 45.0098C84.3692 45.0098 84.7724 45.1099 85.1271 45.3101C85.4874 45.5046 85.7677 45.7763 85.9679 46.1252C86.1738 46.4684 86.2768 46.8688 86.2768 47.3264C86.2768 47.7783 86.1738 48.1787 85.9679 48.5276C85.7677 48.8765 85.4874 49.1511 85.1271 49.3513C84.7724 49.5515 84.3692 49.6516 83.9173 49.6516ZM83.9173 48.9309C84.209 48.9309 84.4693 48.8651 84.6981 48.7335C84.9326 48.602 85.1156 48.4161 85.2472 48.1758C85.3787 47.9299 85.4445 47.6467 85.4445 47.3264C85.4445 47.0004 85.3787 46.7201 85.2472 46.4856C85.1156 46.2453 84.9326 46.0594 84.6981 45.9279C84.4693 45.7963 84.209 45.7305 83.9173 45.7305C83.6256 45.7305 83.3653 45.7963 83.1365 45.9279C82.9077 46.0594 82.7247 46.2453 82.5874 46.4856C82.4501 46.7201 82.3815 47.0004 82.3815 47.3264C82.3815 47.6467 82.4501 47.9299 82.5874 48.1758C82.7247 48.4161 82.9077 48.602 83.1365 48.7335C83.3653 48.8651 83.6256 48.9309 83.9173 48.9309ZM93.1044 45.0098C93.4705 45.0098 93.7937 45.0813 94.074 45.2243C94.3543 45.3673 94.5716 45.5847 94.7261 45.8764C94.8862 46.1681 94.9663 46.537 94.9663 46.9832V49.6001H94.1426V47.0776C94.1426 46.6371 94.0397 46.3054 93.8337 46.0823C93.6278 45.8592 93.339 45.7477 92.9672 45.7477C92.6926 45.7477 92.4524 45.8049 92.2464 45.9193C92.0405 46.0337 91.8804 46.2024 91.766 46.4255C91.6573 46.6486 91.6029 46.926 91.6029 47.2578V49.6001H90.7793V47.0776C90.7793 46.6371 90.6763 46.3054 90.4704 46.0823C90.2702 45.8592 89.9813 45.7477 89.6038 45.7477C89.335 45.7477 89.0976 45.8049 88.8917 45.9193C88.6857 46.0337 88.5256 46.2024 88.4112 46.4255C88.2968 46.6486 88.2396 46.926 88.2396 47.2578V49.6001H87.4159V45.0527H88.2053V46.2625L88.0766 45.9536C88.2196 45.6562 88.4398 45.4245 88.7372 45.2586C89.0347 45.0927 89.3807 45.0098 89.7754 45.0098C90.2101 45.0098 90.5848 45.1185 90.8994 45.3358C91.214 45.5475 91.4199 45.8707 91.5171 46.3054L91.1825 46.1681C91.3198 45.8192 91.56 45.5389 91.9032 45.3273C92.2464 45.1156 92.6468 45.0098 93.1044 45.0098ZM99.3047 49.6001V48.6391L99.2618 48.459V46.8202C99.2618 46.4713 99.1588 46.2024 98.9529 46.0137C98.7527 45.8192 98.4496 45.7219 98.0434 45.7219C97.7746 45.7219 97.5115 45.7677 97.2541 45.8592C96.9967 45.945 96.7793 46.0623 96.602 46.211L96.2588 45.5932C96.4933 45.4045 96.7736 45.2615 97.0996 45.1642C97.4314 45.0613 97.7775 45.0098 98.1378 45.0098C98.7613 45.0098 99.2418 45.1614 99.5793 45.4645C99.9167 45.7677 100.085 46.231 100.085 46.8545V49.6001H99.3047ZM97.8118 49.6516C97.4743 49.6516 97.1769 49.5944 96.9195 49.48C96.6678 49.3656 96.4733 49.2083 96.336 49.0081C96.1987 48.8022 96.1301 48.5705 96.1301 48.3131C96.1301 48.0671 96.1873 47.8441 96.3017 47.6439C96.4218 47.4437 96.6134 47.2835 96.8766 47.1634C97.1454 47.0433 97.5058 46.9832 97.9576 46.9832H99.3991V47.5752H97.992C97.5801 47.5752 97.3027 47.6439 97.1597 47.7811C97.0167 47.9184 96.9452 48.0843 96.9452 48.2788C96.9452 48.5019 97.0339 48.682 97.2112 48.8193C97.3885 48.9509 97.6345 49.0167 97.9491 49.0167C98.2579 49.0167 98.5268 48.948 98.7556 48.8107C98.9901 48.6735 99.1588 48.4733 99.2618 48.2101L99.4248 48.7764C99.3161 49.0453 99.1245 49.2598 98.85 49.4199C98.5754 49.5744 98.2293 49.6516 97.8118 49.6516ZM103.171 49.6516C102.714 49.6516 102.359 49.5286 102.107 49.2826C101.856 49.0367 101.73 48.6849 101.73 48.2273V44.0574H102.554V48.193C102.554 48.4389 102.614 48.6277 102.734 48.7593C102.86 48.8908 103.037 48.9566 103.266 48.9566C103.523 48.9566 103.738 48.8851 103.909 48.7421L104.167 49.3341C104.041 49.4428 103.889 49.5229 103.712 49.5744C103.54 49.6258 103.36 49.6516 103.171 49.6516ZM100.958 45.7305V45.0527H103.858V45.7305H100.958ZM105.162 49.6001V45.0527H105.986V49.6001H105.162ZM105.574 44.1775C105.414 44.1775 105.28 44.1261 105.171 44.0231C105.068 43.9201 105.017 43.7943 105.017 43.6456C105.017 43.4911 105.068 43.3624 105.171 43.2595C105.28 43.1565 105.414 43.105 105.574 43.105C105.734 43.105 105.866 43.1565 105.969 43.2595C106.078 43.3567 106.132 43.4797 106.132 43.6284C106.132 43.7829 106.08 43.9144 105.978 44.0231C105.875 44.1261 105.74 44.1775 105.574 44.1775ZM107.121 49.6001V49.0681L110.038 45.4474L110.201 45.7305H107.173V45.0527H110.862V45.5932L107.945 49.2054L107.756 48.9223H110.931V49.6001H107.121ZM113.991 49.6516C113.505 49.6516 113.076 49.5515 112.704 49.3513C112.338 49.1511 112.052 48.8765 111.846 48.5276C111.646 48.1787 111.546 47.7783 111.546 47.3264C111.546 46.8745 111.643 46.4741 111.837 46.1252C112.038 45.7763 112.309 45.5046 112.653 45.3101C113.001 45.1099 113.393 45.0098 113.828 45.0098C114.268 45.0098 114.657 45.107 114.995 45.3015C115.332 45.496 115.595 45.7706 115.784 46.1252C115.979 46.4741 116.076 46.8831 116.076 47.3521C116.076 47.3865 116.073 47.4265 116.067 47.4723C116.067 47.518 116.064 47.5609 116.059 47.601H112.189V47.0089H115.63L115.295 47.2149C115.301 46.9231 115.241 46.6629 115.115 46.4341C114.989 46.2053 114.815 46.028 114.592 45.9021C114.374 45.7706 114.12 45.7048 113.828 45.7048C113.542 45.7048 113.287 45.7706 113.064 45.9021C112.841 46.028 112.667 46.2081 112.541 46.4427C112.415 46.6715 112.352 46.9346 112.352 47.232V47.3693C112.352 47.6725 112.421 47.9442 112.558 48.1844C112.701 48.4189 112.898 48.602 113.15 48.7335C113.402 48.8651 113.691 48.9309 114.017 48.9309C114.286 48.9309 114.529 48.8851 114.746 48.7936C114.969 48.7021 115.164 48.5648 115.329 48.3817L115.784 48.9137C115.578 49.1539 115.321 49.337 115.012 49.4628C114.709 49.5887 114.369 49.6516 113.991 49.6516ZM120.828 49.6516C120.451 49.6516 120.09 49.6001 119.747 49.4971C119.409 49.3942 119.143 49.2683 118.949 49.1196L119.292 48.4675C119.487 48.5991 119.727 48.7106 120.013 48.8022C120.299 48.8937 120.591 48.9394 120.888 48.9394C121.271 48.9394 121.546 48.8851 121.712 48.7764C121.883 48.6677 121.969 48.5162 121.969 48.3217C121.969 48.1787 121.918 48.0671 121.815 47.9871C121.712 47.907 121.574 47.8469 121.403 47.8069C121.237 47.7668 121.051 47.7325 120.845 47.7039C120.639 47.6696 120.433 47.6296 120.227 47.5838C120.022 47.5323 119.833 47.4637 119.661 47.3779C119.49 47.2864 119.352 47.1634 119.249 47.0089C119.146 46.8488 119.095 46.6371 119.095 46.374C119.095 46.0995 119.172 45.8592 119.327 45.6533C119.481 45.4474 119.698 45.2901 119.979 45.1814C120.265 45.067 120.602 45.0098 120.991 45.0098C121.288 45.0098 121.589 45.047 121.892 45.1213C122.201 45.19 122.453 45.2901 122.647 45.4216L122.295 46.0737C122.089 45.9364 121.875 45.8421 121.652 45.7906C121.429 45.7391 121.206 45.7134 120.982 45.7134C120.622 45.7134 120.353 45.7734 120.176 45.8935C119.999 46.0079 119.91 46.1567 119.91 46.3397C119.91 46.4941 119.961 46.6143 120.064 46.7001C120.173 46.7801 120.31 46.8431 120.476 46.8888C120.648 46.9346 120.837 46.9746 121.043 47.0089C121.248 47.0375 121.454 47.0776 121.66 47.1291C121.866 47.1748 122.052 47.2406 122.218 47.3264C122.39 47.4122 122.527 47.5323 122.63 47.6868C122.739 47.8412 122.793 48.0471 122.793 48.3045C122.793 48.5791 122.713 48.8165 122.553 49.0167C122.392 49.2169 122.167 49.3742 121.875 49.4886C121.583 49.5972 121.234 49.6516 120.828 49.6516ZM125.736 49.6516C125.347 49.6516 125.003 49.5801 124.706 49.4371C124.414 49.2941 124.185 49.0767 124.02 48.785C123.859 48.4876 123.779 48.1158 123.779 47.6696V45.0527H124.603V47.5752C124.603 48.0214 124.709 48.356 124.92 48.5791C125.138 48.8022 125.441 48.9137 125.83 48.9137C126.116 48.9137 126.365 48.8565 126.576 48.7421C126.788 48.622 126.951 48.4504 127.065 48.2273C127.18 47.9985 127.237 47.7239 127.237 47.4036V45.0527H128.061V49.6001H127.28V48.3732L127.409 48.6992C127.26 49.0024 127.037 49.2369 126.739 49.4028C126.442 49.5686 126.107 49.6516 125.736 49.6516ZM132.452 49.6001V48.6391L132.409 48.459V46.8202C132.409 46.4713 132.306 46.2024 132.1 46.0137C131.9 45.8192 131.597 45.7219 131.19 45.7219C130.922 45.7219 130.658 45.7677 130.401 45.8592C130.144 45.945 129.926 46.0623 129.749 46.211L129.406 45.5932C129.64 45.4045 129.921 45.2615 130.247 45.1642C130.578 45.0613 130.924 45.0098 131.285 45.0098C131.908 45.0098 132.389 45.1614 132.726 45.4645C133.064 45.7677 133.232 46.231 133.232 46.8545V49.6001H132.452ZM130.959 49.6516C130.621 49.6516 130.324 49.5944 130.066 49.48C129.815 49.3656 129.62 49.2083 129.483 49.0081C129.346 48.8022 129.277 48.5705 129.277 48.3131C129.277 48.0671 129.334 47.8441 129.449 47.6439C129.569 47.4437 129.76 47.2835 130.024 47.1634C130.292 47.0433 130.653 46.9832 131.105 46.9832H132.546V47.5752H131.139C130.727 47.5752 130.45 47.6439 130.307 47.7811C130.164 47.9184 130.092 48.0843 130.092 48.2788C130.092 48.5019 130.181 48.682 130.358 48.8193C130.535 48.9509 130.781 49.0167 131.096 49.0167C131.405 49.0167 131.674 48.948 131.903 48.8107C132.137 48.6735 132.306 48.4733 132.409 48.2101L132.572 48.7764C132.463 49.0453 132.271 49.2598 131.997 49.4199C131.722 49.5744 131.376 49.6516 130.959 49.6516ZM136.061 49.6516C135.683 49.6516 135.323 49.6001 134.98 49.4971C134.642 49.3942 134.376 49.2683 134.182 49.1196L134.525 48.4675C134.72 48.5991 134.96 48.7106 135.246 48.8022C135.532 48.8937 135.824 48.9394 136.121 48.9394C136.504 48.9394 136.779 48.8851 136.945 48.7764C137.116 48.6677 137.202 48.5162 137.202 48.3217C137.202 48.1787 137.151 48.0671 137.048 47.9871C136.945 47.907 136.807 47.8469 136.636 47.8069C136.47 47.7668 136.284 47.7325 136.078 47.7039C135.872 47.6696 135.666 47.6296 135.46 47.5838C135.254 47.5323 135.066 47.4637 134.894 47.3779C134.722 47.2864 134.585 47.1634 134.482 47.0089C134.379 46.8488 134.328 46.6371 134.328 46.374C134.328 46.0995 134.405 45.8592 134.559 45.6533C134.714 45.4474 134.931 45.2901 135.211 45.1814C135.497 45.067 135.835 45.0098 136.224 45.0098C136.521 45.0098 136.822 45.047 137.125 45.1213C137.434 45.19 137.685 45.2901 137.88 45.4216L137.528 46.0737C137.322 45.9364 137.108 45.8421 136.885 45.7906C136.661 45.7391 136.438 45.7134 136.215 45.7134C135.855 45.7134 135.586 45.7734 135.409 45.8935C135.231 46.0079 135.143 46.1567 135.143 46.3397C135.143 46.4941 135.194 46.6143 135.297 46.7001C135.406 46.7801 135.543 46.8431 135.709 46.8888C135.881 46.9346 136.069 46.9746 136.275 47.0089C136.481 47.0375 136.687 47.0776 136.893 47.1291C137.099 47.1748 137.285 47.2406 137.451 47.3264C137.622 47.4122 137.76 47.5323 137.863 47.6868C137.971 47.8412 138.026 48.0471 138.026 48.3045C138.026 48.5791 137.946 48.8165 137.785 49.0167C137.625 49.2169 137.399 49.3742 137.108 49.4886C136.816 49.5972 136.467 49.6516 136.061 49.6516ZM142.552 49.6001L140.561 45.0527H141.419L143.187 49.1711H142.775L144.577 45.0527H145.383L143.393 49.6001H142.552ZM148.051 49.6516C147.565 49.6516 147.136 49.5515 146.764 49.3513C146.398 49.1511 146.112 48.8765 145.906 48.5276C145.706 48.1787 145.606 47.7783 145.606 47.3264C145.606 46.8745 145.703 46.4741 145.898 46.1252C146.098 45.7763 146.37 45.5046 146.713 45.3101C147.062 45.1099 147.453 45.0098 147.888 45.0098C148.329 45.0098 148.718 45.107 149.055 45.3015C149.393 45.496 149.656 45.7706 149.844 46.1252C150.039 46.4741 150.136 46.8831 150.136 47.3521C150.136 47.3865 150.133 47.4265 150.128 47.4723C150.128 47.518 150.125 47.5609 150.119 47.601H146.249V47.0089H149.69L149.355 47.2149C149.361 46.9231 149.301 46.6629 149.175 46.4341C149.049 46.2053 148.875 46.028 148.652 45.9021C148.434 45.7706 148.18 45.7048 147.888 45.7048C147.602 45.7048 147.348 45.7706 147.125 45.9021C146.902 46.028 146.727 46.2081 146.601 46.4427C146.475 46.6715 146.412 46.9346 146.412 47.232V47.3693C146.412 47.6725 146.481 47.9442 146.618 48.1844C146.761 48.4189 146.959 48.602 147.21 48.7335C147.462 48.8651 147.751 48.9309 148.077 48.9309C148.346 48.9309 148.589 48.8851 148.806 48.7936C149.029 48.7021 149.224 48.5648 149.39 48.3817L149.844 48.9137C149.639 49.1539 149.381 49.337 149.072 49.4628C148.769 49.5887 148.429 49.6516 148.051 49.6516ZM153.708 45.0098C154.08 45.0098 154.406 45.0813 154.686 45.2243C154.972 45.3673 155.195 45.5847 155.355 45.8764C155.516 46.1681 155.596 46.537 155.596 46.9832V49.6001H154.772V47.0776C154.772 46.6371 154.663 46.3054 154.446 46.0823C154.234 45.8592 153.934 45.7477 153.545 45.7477C153.253 45.7477 152.999 45.8049 152.781 45.9193C152.564 46.0337 152.395 46.2024 152.275 46.4255C152.161 46.6486 152.104 46.926 152.104 47.2578V49.6001H151.28V45.0527H152.069V46.2796L151.941 45.9536C152.089 45.6562 152.318 45.4245 152.627 45.2586C152.936 45.0927 153.296 45.0098 153.708 45.0098ZM158.999 49.6516C158.559 49.6516 158.164 49.5543 157.815 49.3599C157.472 49.1654 157.2 48.8937 157 48.5448C156.8 48.1958 156.7 47.7897 156.7 47.3264C156.7 46.8631 156.8 46.4598 157 46.1166C157.2 45.7677 157.472 45.496 157.815 45.3015C158.164 45.107 158.559 45.0098 158.999 45.0098C159.382 45.0098 159.728 45.0956 160.037 45.2672C160.346 45.4388 160.592 45.6962 160.775 46.0394C160.964 46.3826 161.058 46.8116 161.058 47.3264C161.058 47.8412 160.967 48.2702 160.784 48.6134C160.606 48.9566 160.363 49.2169 160.054 49.3942C159.746 49.5658 159.394 49.6516 158.999 49.6516ZM159.068 48.9309C159.354 48.9309 159.611 48.8651 159.84 48.7335C160.074 48.602 160.257 48.4161 160.389 48.1758C160.526 47.9299 160.595 47.6467 160.595 47.3264C160.595 47.0004 160.526 46.7201 160.389 46.4856C160.257 46.2453 160.074 46.0594 159.84 45.9279C159.611 45.7963 159.354 45.7305 159.068 45.7305C158.776 45.7305 158.516 45.7963 158.287 45.9279C158.058 46.0594 157.875 46.2453 157.738 46.4856C157.601 46.7201 157.532 47.0004 157.532 47.3264C157.532 47.6467 157.601 47.9299 157.738 48.1758C157.875 48.4161 158.058 48.602 158.287 48.7335C158.516 48.8651 158.776 48.9309 159.068 48.9309ZM160.621 49.6001V48.3732L160.672 47.3178L160.586 46.2625V43.2337H161.41V49.6001H160.621ZM165.791 49.6001V48.6391L165.748 48.459V46.8202C165.748 46.4713 165.645 46.2024 165.44 46.0137C165.239 45.8192 164.936 45.7219 164.53 45.7219C164.261 45.7219 163.998 45.7677 163.741 45.8592C163.483 45.945 163.266 46.0623 163.089 46.211L162.745 45.5932C162.98 45.4045 163.26 45.2615 163.586 45.1642C163.918 45.0613 164.264 45.0098 164.624 45.0098C165.248 45.0098 165.728 45.1614 166.066 45.4645C166.403 45.7677 166.572 46.231 166.572 46.8545V49.6001H165.791ZM164.298 49.6516C163.961 49.6516 163.663 49.5944 163.406 49.48C163.154 49.3656 162.96 49.2083 162.823 49.0081C162.685 48.8022 162.617 48.5705 162.617 48.3131C162.617 48.0671 162.674 47.8441 162.788 47.6439C162.908 47.4437 163.1 47.2835 163.363 47.1634C163.632 47.0433 163.992 46.9832 164.444 46.9832H165.886V47.5752H164.479C164.067 47.5752 163.789 47.6439 163.646 47.7811C163.503 47.9184 163.432 48.0843 163.432 48.2788C163.432 48.5019 163.52 48.682 163.698 48.8193C163.875 48.9509 164.121 49.0167 164.436 49.0167C164.745 49.0167 165.013 48.948 165.242 48.8107C165.477 48.6735 165.645 48.4733 165.748 48.2101L165.911 48.7764C165.803 49.0453 165.611 49.2598 165.337 49.4199C165.062 49.5744 164.716 49.6516 164.298 49.6516ZM169.401 49.6516C169.023 49.6516 168.663 49.6001 168.319 49.4971C167.982 49.3942 167.716 49.2683 167.522 49.1196L167.865 48.4675C168.059 48.5991 168.299 48.7106 168.585 48.8022C168.871 48.8937 169.163 48.9394 169.461 48.9394C169.844 48.9394 170.118 48.8851 170.284 48.7764C170.456 48.6677 170.542 48.5162 170.542 48.3217C170.542 48.1787 170.49 48.0671 170.387 47.9871C170.284 47.907 170.147 47.8469 169.975 47.8069C169.81 47.7668 169.624 47.7325 169.418 47.7039C169.212 47.6696 169.006 47.6296 168.8 47.5838C168.594 47.5323 168.405 47.4637 168.234 47.3779C168.062 47.2864 167.925 47.1634 167.822 47.0089C167.719 46.8488 167.667 46.6371 167.667 46.374C167.667 46.0995 167.745 45.8592 167.899 45.6533C168.053 45.4474 168.271 45.2901 168.551 45.1814C168.837 45.067 169.175 45.0098 169.564 45.0098C169.861 45.0098 170.161 45.047 170.464 45.1213C170.773 45.19 171.025 45.2901 171.22 45.4216L170.868 46.0737C170.662 45.9364 170.447 45.8421 170.224 45.7906C170.001 45.7391 169.778 45.7134 169.555 45.7134C169.195 45.7134 168.926 45.7734 168.748 45.8935C168.571 46.0079 168.482 46.1567 168.482 46.3397C168.482 46.4941 168.534 46.6143 168.637 46.7001C168.746 46.7801 168.883 46.8431 169.049 46.8888C169.22 46.9346 169.409 46.9746 169.615 47.0089C169.821 47.0375 170.027 47.0776 170.233 47.1291C170.439 47.1748 170.625 47.2406 170.791 47.3264C170.962 47.4122 171.099 47.5323 171.202 47.6868C171.311 47.8412 171.365 48.0471 171.365 48.3045C171.365 48.5791 171.285 48.8165 171.125 49.0167C170.965 49.2169 170.739 49.3742 170.447 49.4886C170.156 49.5972 169.807 49.6516 169.401 49.6516ZM176.681 49.6516C176.218 49.6516 175.803 49.5515 175.437 49.3513C175.076 49.1511 174.793 48.8765 174.587 48.5276C174.382 48.1787 174.279 47.7783 174.279 47.3264C174.279 46.8745 174.382 46.4741 174.587 46.1252C174.793 45.7763 175.076 45.5046 175.437 45.3101C175.803 45.1099 176.218 45.0098 176.681 45.0098C177.093 45.0098 177.459 45.0927 177.779 45.2586C178.105 45.4188 178.357 45.659 178.534 45.9793L177.908 46.3826C177.759 46.1595 177.576 45.9965 177.359 45.8935C177.147 45.7849 176.918 45.7305 176.672 45.7305C176.375 45.7305 176.109 45.7963 175.874 45.9279C175.64 46.0594 175.454 46.2453 175.317 46.4856C175.179 46.7201 175.111 47.0004 175.111 47.3264C175.111 47.6524 175.179 47.9356 175.317 48.1758C175.454 48.4161 175.64 48.602 175.874 48.7335C176.109 48.8651 176.375 48.9309 176.672 48.9309C176.918 48.9309 177.147 48.8794 177.359 48.7764C177.576 48.6677 177.759 48.5019 177.908 48.2788L178.534 48.6735C178.357 48.9881 178.105 49.2312 177.779 49.4028C177.459 49.5686 177.093 49.6516 176.681 49.6516ZM181.481 49.6516C181.024 49.6516 180.618 49.5515 180.263 49.3513C179.908 49.1511 179.628 48.8765 179.422 48.5276C179.216 48.173 179.113 47.7726 179.113 47.3264C179.113 46.8745 179.216 46.4741 179.422 46.1252C179.628 45.7763 179.908 45.5046 180.263 45.3101C180.618 45.1099 181.024 45.0098 181.481 45.0098C181.933 45.0098 182.336 45.1099 182.691 45.3101C183.051 45.5046 183.332 45.7763 183.532 46.1252C183.738 46.4684 183.841 46.8688 183.841 47.3264C183.841 47.7783 183.738 48.1787 183.532 48.5276C183.332 48.8765 183.051 49.1511 182.691 49.3513C182.336 49.5515 181.933 49.6516 181.481 49.6516ZM181.481 48.9309C181.773 48.9309 182.033 48.8651 182.262 48.7335C182.497 48.602 182.68 48.4161 182.811 48.1758C182.943 47.9299 183.009 47.6467 183.009 47.3264C183.009 47.0004 182.943 46.7201 182.811 46.4856C182.68 46.2453 182.497 46.0594 182.262 45.9279C182.033 45.7963 181.773 45.7305 181.481 45.7305C181.19 45.7305 180.929 45.7963 180.7 45.9279C180.472 46.0594 180.289 46.2453 180.151 46.4856C180.014 46.7201 179.945 47.0004 179.945 47.3264C179.945 47.6467 180.014 47.9299 180.151 48.1758C180.289 48.4161 180.472 48.602 180.7 48.7335C180.929 48.8651 181.19 48.9309 181.481 48.9309ZM190.668 45.0098C191.035 45.0098 191.358 45.0813 191.638 45.2243C191.918 45.3673 192.136 45.5847 192.29 45.8764C192.45 46.1681 192.53 46.537 192.53 46.9832V49.6001H191.707V47.0776C191.707 46.6371 191.604 46.3054 191.398 46.0823C191.192 45.8592 190.903 45.7477 190.531 45.7477C190.257 45.7477 190.016 45.8049 189.81 45.9193C189.605 46.0337 189.444 46.2024 189.33 46.4255C189.221 46.6486 189.167 46.926 189.167 47.2578V49.6001H188.343V47.0776C188.343 46.6371 188.24 46.3054 188.034 46.0823C187.834 45.8592 187.545 45.7477 187.168 45.7477C186.899 45.7477 186.662 45.8049 186.456 45.9193C186.25 46.0337 186.09 46.2024 185.975 46.4255C185.861 46.6486 185.804 46.926 185.804 47.2578V49.6001H184.98V45.0527H185.769V46.2625L185.641 45.9536C185.784 45.6562 186.004 45.4245 186.301 45.2586C186.599 45.0927 186.945 45.0098 187.339 45.0098C187.774 45.0098 188.149 45.1185 188.463 45.3358C188.778 45.5475 188.984 45.8707 189.081 46.3054L188.747 46.1681C188.884 45.8192 189.124 45.5389 189.467 45.3273C189.81 45.1156 190.211 45.0098 190.668 45.0098ZM196.35 49.6001V45.0527H197.174V49.6001H196.35ZM196.762 44.1775C196.602 44.1775 196.467 44.1261 196.359 44.0231C196.256 43.9201 196.204 43.7943 196.204 43.6456C196.204 43.4911 196.256 43.3624 196.359 43.2595C196.467 43.1565 196.602 43.105 196.762 43.105C196.922 43.105 197.054 43.1565 197.157 43.2595C197.265 43.3567 197.32 43.4797 197.32 43.6284C197.32 43.7829 197.268 43.9144 197.165 44.0231C197.062 44.1261 196.928 44.1775 196.762 44.1775ZM201.175 45.0098C201.546 45.0098 201.872 45.0813 202.153 45.2243C202.439 45.3673 202.662 45.5847 202.822 45.8764C202.982 46.1681 203.062 46.537 203.062 46.9832V49.6001H202.238V47.0776C202.238 46.6371 202.13 46.3054 201.912 46.0823C201.701 45.8592 201.401 45.7477 201.012 45.7477C200.72 45.7477 200.465 45.8049 200.248 45.9193C200.031 46.0337 199.862 46.2024 199.742 46.4255C199.627 46.6486 199.57 46.926 199.57 47.2578V49.6001H198.746V45.0527H199.536V46.2796L199.407 45.9536C199.556 45.6562 199.785 45.4245 200.093 45.2586C200.402 45.0927 200.763 45.0098 201.175 45.0098ZM206.148 49.6516C205.69 49.6516 205.336 49.5286 205.084 49.2826C204.832 49.0367 204.707 48.6849 204.707 48.2273V44.0574H205.53V48.193C205.53 48.4389 205.59 48.6277 205.711 48.7593C205.836 48.8908 206.014 48.9566 206.242 48.9566C206.5 48.9566 206.714 48.8851 206.886 48.7421L207.143 49.3341C207.018 49.4428 206.866 49.5229 206.689 49.5744C206.517 49.6258 206.337 49.6516 206.148 49.6516ZM203.934 45.7305V45.0527H206.834V45.7305H203.934ZM210.013 49.6516C209.527 49.6516 209.098 49.5515 208.726 49.3513C208.36 49.1511 208.074 48.8765 207.868 48.5276C207.668 48.1787 207.568 47.7783 207.568 47.3264C207.568 46.8745 207.665 46.4741 207.86 46.1252C208.06 45.7763 208.332 45.5046 208.675 45.3101C209.024 45.1099 209.416 45.0098 209.85 45.0098C210.291 45.0098 210.68 45.107 211.017 45.3015C211.355 45.496 211.618 45.7706 211.806 46.1252C212.001 46.4741 212.098 46.8831 212.098 47.3521C212.098 47.3865 212.095 47.4265 212.09 47.4723C212.09 47.518 212.087 47.5609 212.081 47.601H208.211V47.0089H211.652L211.317 47.2149C211.323 46.9231 211.263 46.6629 211.137 46.4341C211.011 46.2053 210.837 46.028 210.614 45.9021C210.396 45.7706 210.142 45.7048 209.85 45.7048C209.564 45.7048 209.31 45.7706 209.087 45.9021C208.864 46.028 208.689 46.2081 208.563 46.4427C208.437 46.6715 208.374 46.9346 208.374 47.232V47.3693C208.374 47.6725 208.443 47.9442 208.58 48.1844C208.723 48.4189 208.921 48.602 209.172 48.7335C209.424 48.8651 209.713 48.9309 210.039 48.9309C210.308 48.9309 210.551 48.8851 210.768 48.7936C210.991 48.7021 211.186 48.5648 211.352 48.3817L211.806 48.9137C211.601 49.1539 211.343 49.337 211.034 49.4628C210.731 49.5887 210.391 49.6516 210.013 49.6516ZM213.242 49.6001V43.2337H214.066V49.6001H213.242ZM215.638 49.6001V45.0527H216.462V49.6001H215.638ZM216.05 44.1775C215.89 44.1775 215.756 44.1261 215.647 44.0231C215.544 43.9201 215.492 43.7943 215.492 43.6456C215.492 43.4911 215.544 43.3624 215.647 43.2595C215.756 43.1565 215.89 43.105 216.05 43.105C216.21 43.105 216.342 43.1565 216.445 43.2595C216.554 43.3567 216.608 43.4797 216.608 43.6284C216.608 43.7829 216.556 43.9144 216.453 44.0231C216.35 44.1261 216.216 44.1775 216.05 44.1775ZM220.025 51.3161C219.608 51.3161 219.202 51.256 218.807 51.1359C218.418 51.0215 218.1 50.8556 217.854 50.6383L218.249 50.0034C218.461 50.1864 218.721 50.3294 219.03 50.4324C219.339 50.541 219.662 50.5954 219.999 50.5954C220.537 50.5954 220.932 50.4695 221.184 50.2179C221.435 49.9662 221.561 49.5829 221.561 49.0681V48.1072L221.647 47.2063L221.604 46.2968V45.0527H222.385V48.9823C222.385 49.7831 222.185 50.3723 221.784 50.7498C221.384 51.1273 220.797 51.3161 220.025 51.3161ZM219.922 49.4113C219.482 49.4113 219.087 49.3198 218.738 49.1368C218.395 48.948 218.12 48.6878 217.915 48.356C217.714 48.0242 217.614 47.641 217.614 47.2063C217.614 46.7658 217.714 46.3826 217.915 46.0566C218.12 45.7248 218.395 45.4674 218.738 45.2844C219.087 45.1013 219.482 45.0098 219.922 45.0098C220.311 45.0098 220.666 45.0899 220.986 45.25C221.307 45.4045 221.561 45.6447 221.75 45.9708C221.944 46.2968 222.042 46.7086 222.042 47.2063C222.042 47.6982 221.944 48.1072 221.75 48.4332C221.561 48.7593 221.307 49.0052 220.986 49.1711C220.666 49.3313 220.311 49.4113 219.922 49.4113ZM220.017 48.6906C220.32 48.6906 220.589 48.6277 220.823 48.5019C221.058 48.376 221.241 48.2016 221.372 47.9785C221.51 47.7554 221.578 47.498 221.578 47.2063C221.578 46.9146 221.51 46.6572 221.372 46.4341C221.241 46.211 221.058 46.0394 220.823 45.9193C220.589 45.7934 220.32 45.7305 220.017 45.7305C219.713 45.7305 219.442 45.7934 219.202 45.9193C218.967 46.0394 218.781 46.211 218.644 46.4341C218.512 46.6572 218.447 46.9146 218.447 47.2063C218.447 47.498 218.512 47.7554 218.644 47.9785C218.781 48.2016 218.967 48.376 219.202 48.5019C219.442 48.6277 219.713 48.6906 220.017 48.6906ZM225.983 49.6516C225.497 49.6516 225.068 49.5515 224.696 49.3513C224.33 49.1511 224.044 48.8765 223.838 48.5276C223.638 48.1787 223.538 47.7783 223.538 47.3264C223.538 46.8745 223.635 46.4741 223.83 46.1252C224.03 45.7763 224.302 45.5046 224.645 45.3101C224.994 45.1099 225.386 45.0098 225.82 45.0098C226.261 45.0098 226.65 45.107 226.987 45.3015C227.325 45.496 227.588 45.7706 227.777 46.1252C227.971 46.4741 228.068 46.8831 228.068 47.3521C228.068 47.3865 228.066 47.4265 228.06 47.4723C228.06 47.518 228.057 47.5609 228.051 47.601H224.182V47.0089H227.622L227.288 47.2149C227.293 46.9231 227.233 46.6629 227.107 46.4341C226.982 46.2053 226.807 46.028 226.584 45.9021C226.367 45.7706 226.112 45.7048 225.82 45.7048C225.534 45.7048 225.28 45.7706 225.057 45.9021C224.834 46.028 224.659 46.2081 224.533 46.4427C224.408 46.6715 224.345 46.9346 224.345 47.232V47.3693C224.345 47.6725 224.413 47.9442 224.551 48.1844C224.694 48.4189 224.891 48.602 225.143 48.7335C225.394 48.8651 225.683 48.9309 226.009 48.9309C226.278 48.9309 226.521 48.8851 226.738 48.7936C226.962 48.7021 227.156 48.5648 227.322 48.3817L227.777 48.9137C227.571 49.1539 227.313 49.337 227.004 49.4628C226.701 49.5887 226.361 49.6516 225.983 49.6516ZM224.276 44.392L225.417 43.2766H226.207L227.348 44.392H226.601L225.469 43.4482H226.155L225.022 44.392H224.276ZM231.64 45.0098C232.012 45.0098 232.338 45.0813 232.618 45.2243C232.904 45.3673 233.127 45.5847 233.288 45.8764C233.448 46.1681 233.528 46.537 233.528 46.9832V49.6001H232.704V47.0776C232.704 46.6371 232.596 46.3054 232.378 46.0823C232.167 45.8592 231.866 45.7477 231.477 45.7477C231.186 45.7477 230.931 45.8049 230.714 45.9193C230.496 46.0337 230.328 46.2024 230.207 46.4255C230.093 46.6486 230.036 46.926 230.036 47.2578V49.6001H229.212V45.0527H230.001V46.2796L229.873 45.9536C230.022 45.6562 230.25 45.4245 230.559 45.2586C230.868 45.0927 231.228 45.0098 231.64 45.0098ZM237.034 49.6516C236.571 49.6516 236.156 49.5515 235.79 49.3513C235.43 49.1511 235.147 48.8765 234.941 48.5276C234.735 48.1787 234.632 47.7783 234.632 47.3264C234.632 46.8745 234.735 46.4741 234.941 46.1252C235.147 45.7763 235.43 45.5046 235.79 45.3101C236.156 45.1099 236.571 45.0098 237.034 45.0098C237.446 45.0098 237.812 45.0927 238.132 45.2586C238.458 45.4188 238.71 45.659 238.887 45.9793L238.261 46.3826C238.112 46.1595 237.929 45.9965 237.712 45.8935C237.5 45.7849 237.272 45.7305 237.026 45.7305C236.728 45.7305 236.462 45.7963 236.228 45.9279C235.993 46.0594 235.807 46.2453 235.67 46.4856C235.533 46.7201 235.464 47.0004 235.464 47.3264C235.464 47.6524 235.533 47.9356 235.67 48.1758C235.807 48.4161 235.993 48.602 236.228 48.7335C236.462 48.8651 236.728 48.9309 237.026 48.9309C237.272 48.9309 237.5 48.8794 237.712 48.7764C237.929 48.6677 238.112 48.5019 238.261 48.2788L238.887 48.6735C238.71 48.9881 238.458 49.2312 238.132 49.4028C237.812 49.5686 237.446 49.6516 237.034 49.6516ZM239.895 49.6001V45.0527H240.719V49.6001H239.895ZM240.307 44.1775C240.147 44.1775 240.012 44.1261 239.904 44.0231C239.801 43.9201 239.749 43.7943 239.749 43.6456C239.749 43.4911 239.801 43.3624 239.904 43.2595C240.012 43.1565 240.147 43.105 240.307 43.105C240.467 43.105 240.599 43.1565 240.702 43.2595C240.81 43.3567 240.865 43.4797 240.865 43.6284C240.865 43.7829 240.813 43.9144 240.71 44.0231C240.607 44.1261 240.473 44.1775 240.307 44.1775ZM245.114 49.6001V48.6391L245.072 48.459V46.8202C245.072 46.4713 244.969 46.2024 244.763 46.0137C244.562 45.8192 244.259 45.7219 243.853 45.7219C243.584 45.7219 243.321 45.7677 243.064 45.8592C242.806 45.945 242.589 46.0623 242.412 46.211L242.069 45.5932C242.303 45.4045 242.583 45.2615 242.909 45.1642C243.241 45.0613 243.587 45.0098 243.948 45.0098C244.571 45.0098 245.052 45.1614 245.389 45.4645C245.726 45.7677 245.895 46.231 245.895 46.8545V49.6001H245.114ZM243.622 49.6516C243.284 49.6516 242.987 49.5944 242.729 49.48C242.478 49.3656 242.283 49.2083 242.146 49.0081C242.008 48.8022 241.94 48.5705 241.94 48.3131C241.94 48.0671 241.997 47.8441 242.111 47.6439C242.232 47.4437 242.423 47.2835 242.686 47.1634C242.955 47.0433 243.315 46.9832 243.767 46.9832H245.209V47.5752H243.802C243.39 47.5752 243.112 47.6439 242.969 47.7811C242.826 47.9184 242.755 48.0843 242.755 48.2788C242.755 48.5019 242.844 48.682 243.021 48.8193C243.198 48.9509 243.444 49.0167 243.759 49.0167C244.068 49.0167 244.337 48.948 244.565 48.8107C244.8 48.6735 244.969 48.4733 245.072 48.2101L245.235 48.7764C245.126 49.0453 244.934 49.2598 244.66 49.4199C244.385 49.5744 244.039 49.6516 243.622 49.6516Z" fill="#646464"/>
<defs>
<linearGradient id="paint0_linear_31_17" x1="0.068171" y1="4.11325e-06" x2="60.7983" y2="14.2725" gradientUnits="userSpaceOnUse">
<stop stop-color="#DD0058"/>
<stop stop-color="#C50068"/>
<stop offset="0.41" stop-color="#8F008C"/>
<stop offset="1" stop-color="#4000BF"/>
</linearGradient>
</defs>
</svg>
